<?xml version="1.0" standalone="no"?>
<!DOCTYPE svg PUBLIC "-//W3C//DTD SVG 1.1//EN" "http://www.w3.org/Graphics/SVG/1.1/DTD/svg11.dtd" >
<svg xmlns="http://www.w3.org/2000/svg" xmlns:xlink="http://www.w3.org/1999/xlink" version="1.1">
<metadata>
Created by FontForge 20230101 at Fri Mar 22 06:22:46 2013
 By Unknown
Digitized data (C) 2003 Agfa Monotype Corporation. All rights reserved. ITC Bookman(TM) is a trademark of International Typeface Corporation and may be registered in certain jurisdictions. ITC Bookman is designed by Edward Benguiat.
</metadata>
<defs>
<font id="BookmanSwashITC-Medium" horiz-adv-x="1479" >
  <font-face 
    font-family="BookmanSwashITC-Medium"
    font-weight="400"
    font-stretch="normal"
    units-per-em="2048"
    panose-1="2 5 7 4 5 5 5 2 2 4"
    ascent="1540"
    descent="-508"
    x-height="1217"
    cap-height="1399"
    bbox="-983 -590 2808 1788"
    underline-thickness="102"
    underline-position="-256"
    unicode-range="U+0020-0153"
  />
<missing-glyph horiz-adv-x="2048" 
d="M213 0v1536h1536v-1536h-1536zM341 128h1280v1280h-1280v-1280z" />
    <glyph glyph-name=".notdef" horiz-adv-x="2048" 
d="M213 0v1536h1536v-1536h-1536zM341 128h1280v1280h-1280v-1280z" />
    <glyph glyph-name=".null" horiz-adv-x="0" 
 />
    <glyph glyph-name="nonmarkingreturn" horiz-adv-x="627" 
 />
    <glyph glyph-name="space" unicode=" " horiz-adv-x="627" 
 />
    <glyph glyph-name="numbersign" unicode="#" horiz-adv-x="1169" 
d="M1135 1047l-39 -117h-209l-78 -215h211l-39 -117h-213l-90 -250h-141l90 251h-250l-90 -251h-142l91 251h-201l39 116h202l76 215h-202l38 117h207l80 225h141l-79 -225h249l80 225h144l-82 -225h207zM743 930h-249l-76 -215h250z" />
    <glyph glyph-name="dollar" unicode="$" horiz-adv-x="997" 
d="M924 465q0 -129 -100 -211t-271 -96v-230h-102v230q-84 5 -173.5 31.5t-152 78t-62.5 127.5q0 50 34.5 85.5t84.5 35.5q60 0 89.5 -30.5t29.5 -84.5q0 -11 -4 -28t-4 -29q0 -26 43 -48t115 -28v287l-117 31q-83 22 -134 52t-76.5 77.5t-25.5 120.5q0 84 43 147.5t123 101
t187 45.5v240h102v-240q81 -8 153 -34.5t118 -71t46 -106.5q0 -97 -84 -97q-100 0 -131 144q-5 22 -31.5 39t-70.5 24v-266l109 -29q127 -32 194.5 -91.5t67.5 -176.5zM451 788v242q-77 -4 -113.5 -37.5t-36.5 -83.5q0 -43 28.5 -70t88.5 -42zM713 408q0 47 -31 72t-100 42
l-29 8v-260q76 12 118 48t42 90z" />
    <glyph glyph-name="ampersand" unicode="&#x26;" horiz-adv-x="2863" 
d="M2808 266q0 -72 -54 -142t-151.5 -113.5t-224.5 -43.5q-89 0 -191.5 31t-181.5 98q-107 -67 -239.5 -97t-252.5 -30q-118 0 -217.5 32.5t-171.5 91t-110.5 134t-38.5 158.5q0 92 34.5 167t113 136.5t206.5 106.5q-72 56 -111.5 134.5t-39.5 168.5q0 87 48 156t137 107
t202 38q116 0 200.5 -38t128 -106t43.5 -151q0 -66 -37 -122.5t-95.5 -96.5t-129.5 -70q95 -69 167.5 -145t110.5 -130.5t92.5 -134.5t82.5 -110q143 91 216 219t73 303q0 241 -131.5 398.5t-341.5 230t-449 72.5q-238 0 -447 -50.5t-362 -140.5q-410 -237 -410 -665
q0 -151 52.5 -276t134.5 -195t168 -70q39 0 62.5 15.5t23.5 39.5q0 17 -6 29.5t-12.5 25t-13.5 30t-7 30.5q0 57 37.5 88t89.5 31t89.5 -29.5t56 -75t18.5 -96.5q0 -104 -90 -169t-207 -65q-111 0 -217.5 53t-192.5 149.5t-136 224t-50 264.5q0 99 27 196t81.5 189
t137 175.5t186.5 149.5q123 81 274 137.5t322 86.5t354 30q252 0 466.5 -59.5t370 -167.5t240 -255t84.5 -319q0 -184 -107 -345.5t-300 -284.5q32 -40 84.5 -64t95.5 -24q154 0 154 94q0 15 -3 22t-7 15.5t-8.5 23t-4.5 27.5q0 50 40.5 89.5t102.5 39.5q39 0 71 -18
t51.5 -53.5t19.5 -84.5zM1724 1126q0 68 -36 110t-97 42q-73 0 -106 -46t-33 -102q0 -131 127 -231q67 39 106 102.5t39 124.5zM1894 186q-32 33 -86.5 106t-109 141.5t-125.5 140t-158 131.5q-39 -11 -78.5 -51.5t-65.5 -102.5t-26 -127q0 -140 98.5 -224.5t262.5 -84.5
q182 0 288 71z" />
    <glyph glyph-name="plus" unicode="+" horiz-adv-x="1829" 
d="M1806 958q0 -103 -53 -186t-144.5 -129.5t-201.5 -46.5q-136 0 -270 51l-2 -2q61 -44 97 -108t36 -142q0 -138 -86.5 -233.5t-219.5 -142t-270 -46.5q-149 0 -266.5 37t-196.5 102.5t-118 152.5t-39 181q0 132 86 238.5t231 161.5q-76 33 -120 101t-44 151
q0 102 60.5 172t160.5 104.5t213 34.5q93 0 175 -28t132 -82t50 -125q0 -22 -4 -33.5t-9.5 -19t-5.5 -11.5q0 -12 15 -12q41 0 84 40.5t43 92.5q0 32 -16.5 50.5t-50.5 42.5t-50 44.5t-16 58.5q0 49 32 78t80 29q82 0 131 -64t49 -155q0 -100 -54 -183.5t-138 -129.5
t-166 -46q-89 0 -148 38t-59 112q0 47 22.5 72.5t54.5 42.5t32 24q0 20 -45 36.5t-103 16.5q-107 0 -168 -54t-61 -144q0 -98 60 -146.5t165 -48.5q27 0 55 4l-40 -114q-96 -8 -181 -53t-136.5 -124.5t-51.5 -181.5q0 -94 47 -170t135 -120t203 -44q107 0 181 38t110.5 99
t36.5 132q0 89 -49.5 144.5t-151.5 55.5q-45 0 -90 -22t-45 -60q0 -26 22 -26q6 0 25 9t43 9q19 0 40 -8.5t37.5 -24t27 -42.5t10.5 -58q0 -65 -41 -107t-109 -42q-62 0 -104.5 30.5t-63 80t-20.5 106.5q0 144 98.5 234t253.5 129.5t334 39.5h192q63 0 132 35t69 98
q0 5 -4 9t-8 4q-10 0 -34.5 -17.5t-53.5 -17.5q-59 0 -96.5 40t-37.5 99q0 67 47 111.5t115 44.5q92 0 155.5 -80.5t63.5 -186.5z" />
    <glyph glyph-name="zero" unicode="0" horiz-adv-x="1354" 
d="M1272 606q0 -287 -159 -460t-435 -173q-138 0 -247.5 45t-187.5 127.5t-119.5 197.5t-41.5 251q0 206 69 358.5t204.5 236t322.5 83.5q135 0 243.5 -44t188 -131.5t121 -211.5t41.5 -279zM1004 592q0 131 -14 229.5t-50.5 171.5t-100.5 110.5t-161 37.5
q-128 0 -199.5 -67.5t-99 -187.5t-27.5 -288t31 -276t103.5 -163t191.5 -55q172 0 249 124t77 364z" />
    <glyph glyph-name="one" unicode="1" horiz-adv-x="874" 
d="M831 0h-774v98q126 0 200.5 48t74.5 141v631q0 87 -25.5 122t-99.5 35h-148v115h74q62 0 130 8t123.5 20.5t84.5 26.5h119v-942q0 -108 46 -156.5t195 -48.5v-98z" />
    <glyph glyph-name="two" unicode="2" horiz-adv-x="1159" 
d="M1085 352q-6 -23 -14 -58t-16 -69q-8 -32 -17.5 -72t-16.5 -74t-13 -79h-936l-37 119q140 74 260.5 164.5t215 195t147.5 212t53 208.5q0 110 -58 174t-180 64q-65 0 -136 -37t-71 -101q0 -12 20 -34.5t30 -41t10 -53.5q0 -59 -37 -93t-103 -34q-62 0 -100.5 47.5
t-38.5 127.5t38.5 146.5t103.5 112.5t145.5 70.5t171.5 24.5q92 0 179.5 -26.5t154.5 -76t106 -124t39 -166.5q0 -87 -34 -165t-95.5 -148t-135 -128t-188.5 -135l-161 -106h325q89 0 140 13.5t86 49.5t73 111z" />
    <glyph glyph-name="three" unicode="3" horiz-adv-x="1122" 
d="M1053 344q0 -131 -55 -244t-151 -195.5t-215 -127.5t-247 -45q-91 0 -183.5 24t-153 73.5t-60.5 117.5q0 52 39 82t84 30q51 0 75.5 -23t55.5 -71t71 -73t117 -25q109 0 194 58t132 154.5t47 205.5q0 100 -42 169t-112 101.5t-153 32.5q-72 0 -106 -9.5t-95 -33.5l-45 61
l391 438h-332q-81 0 -115 -35.5t-77 -123.5l-92 16l51 344h823l16 -88l-327 -364q147 0 252.5 -56.5t159 -158.5t53.5 -234z" />
    <glyph glyph-name="four" unicode="4" horiz-adv-x="1223" 
d="M1219 295l-68 -131h-238v-361h-241v361h-627l-39 90q108 109 208 251t178 288t134.5 286.5t87.5 259.5h254q-63 -168 -144.5 -323.5t-163.5 -276t-164 -222t-187 -222.5h463v504l241 149v-653h306z" />
    <glyph glyph-name="five" unicode="5" horiz-adv-x="1202" 
d="M1122 365q0 -167 -81 -311.5t-229.5 -230t-344.5 -85.5q-176 0 -292 56.5t-116 164.5q0 49 37.5 84t87.5 35q61 0 88.5 -25.5t52.5 -76.5t57 -77t103 -26q117 0 205 54.5t135 148t47 209.5q0 107 -35.5 194t-106.5 138t-177 51q-99 0 -180 -44.5t-140 -121.5l-110 49
l41 694h575q69 0 95 36t30 60h97l-41 -288h-648l-18 -336l2 -2q57 51 118 86t128.5 52t142.5 17q125 0 217.5 -47t149.5 -123.5t83.5 -164.5t26.5 -170z" />
    <glyph glyph-name="six" unicode="6" horiz-adv-x="1290" 
d="M1227 481q0 -140 -70.5 -257.5t-198 -184t-290.5 -66.5q-159 0 -293.5 75t-213.5 208.5t-79 300.5q0 156 51 298t145.5 258t235.5 211t317 163l37 -94q-146 -63 -254 -158.5t-175 -213.5t-91 -245l6 -2q76 83 180.5 127.5t223.5 44.5q145 0 252 -65t162 -171t55 -229z
M971 477q0 144 -64.5 240t-220.5 96q-103 0 -178 -49t-112.5 -129t-37.5 -176t32.5 -175t100 -127t168.5 -48q155 0 233.5 103.5t78.5 264.5z" />
    <glyph glyph-name="seven" unicode="7" horiz-adv-x="1092" 
d="M1087 1133q-14 -22 -32 -45.5t-29.5 -39t-21.5 -32.5q-133 -211 -208.5 -391.5t-106 -364.5t-30.5 -426h-294q0 136 36 282t98.5 292.5t141.5 286.5t174 276q3 5 12 17.5t19.5 27.5t15.5 22h-405q-106 0 -160 -12.5t-83 -48t-56 -113.5l-90 19l57 362h946z" />
    <glyph glyph-name="eight" unicode="8" horiz-adv-x="1221" 
d="M1251 1364q0 -150 -160 -304t-337 -247q383 -121 383 -395q0 -95 -53.5 -197.5t-176 -175t-311.5 -72.5q-206 0 -328 63.5t-169.5 154.5t-47.5 186q0 126 77.5 216.5t215.5 135.5v2q-112 51 -168.5 125t-56.5 186q0 121 66.5 203.5t171.5 122t218 39.5q65 0 136.5 -13.5
t131.5 -42t104 -79t57 -119.5q63 61 63 127q0 17 -13.5 49.5t-13.5 46.5q0 52 28 81.5t83 29.5q49 0 74.5 -37t25.5 -86zM831 1108q0 53 -32 93.5t-92 63.5t-140 23q-95 0 -170 -46t-75 -132q0 -46 21.5 -80t82.5 -72t186 -88q96 51 146 101q40 40 56.5 69.5t16.5 67.5z
M897 358q0 71 -33.5 123t-119 98.5t-244.5 94.5q-109 -50 -170.5 -122.5t-61.5 -182.5q0 -90 46.5 -150.5t119.5 -88.5t152 -28q88 0 158 28.5t111.5 86.5t41.5 141z" />
    <glyph glyph-name="nine" unicode="9" horiz-adv-x="1292" 
d="M1210 645q0 -160 -55.5 -312.5t-163 -286t-265 -238.5t-357.5 -168l-39 104q165 70 274.5 147t180.5 164.5t109 179.5t58 203l-6 2q-64 -87 -158.5 -137.5t-240.5 -50.5q-106 0 -195 37t-155 104.5t-100 153.5t-34 186q0 162 81 285.5t214.5 188.5t286.5 65
q127 0 232.5 -49t179.5 -135t113.5 -199t39.5 -244zM936 758q0 102 -28 186.5t-96 138.5t-179 54q-115 0 -185 -57t-98 -145.5t-28 -191.5q0 -151 64 -254.5t230 -103.5q83 0 145.5 30.5t101.5 83t56 117.5t17 142z" />
    <glyph glyph-name="A" unicode="A" 
d="M1513 0h-630v119q100 3 140 18t40 45q0 22 -25 84l-98 250h-516q-147 -292 -351.5 -475.5t-496.5 -183.5q-87 0 -171.5 29t-151 85.5t-105.5 138.5t-39 181q0 129 61 236.5t169.5 170t244.5 62.5q91 0 151 -49t60 -111q0 -68 -41.5 -104.5t-111.5 -36.5q-34 0 -55 9
t-46 28.5t-43 29t-47 9.5q-75 0 -122.5 -66.5t-47.5 -171.5q0 -85 38.5 -150.5t110 -102t167.5 -36.5q107 0 204 39t186.5 116t172 191t159.5 267q165 318 326 792h219l451 -1114q30 -71 52.5 -105t55 -50.5t90.5 -24.5v-119zM891 647l-201 514q-28 -91 -96 -263t-107 -251
h404z" />
    <glyph glyph-name="B" unicode="B" 
d="M1384 418q0 -161 -81 -254t-207.5 -128.5t-280.5 -35.5h-786v119q93 5 134.5 40t41.5 113v850q0 63 -28 96t-107 33q-125 0 -195 -32q-61 -28 -94 -75t-33 -102q0 -61 37 -61q12 0 31.5 17t38 26.5t53.5 9.5q52 0 87.5 -34.5t35.5 -104.5q0 -65 -51.5 -109.5
t-139.5 -44.5q-81 0 -142.5 43.5t-92.5 109t-31 130.5q0 77 33.5 144.5t99.5 119.5t162 80q60 19 127.5 25t159.5 6q32 0 93 -2t93 -2h455q152 0 266.5 -28.5t183 -102t68.5 -199.5q0 -111 -62.5 -184.5t-144.5 -102.5l-49 -16v-4l39 -8q136 -28 211 -105.5t75 -226.5z
M1040 1034q0 113 -75 171.5t-260 58.5q-103 0 -151 -13t-61.5 -42t-13.5 -89v-305h203q160 0 259 46t99 173zM1085 430q0 254 -292 254h-314v-414q0 -62 18.5 -90.5t64.5 -38.5t140 -10q194 0 288.5 82t94.5 217z" />
    <glyph glyph-name="C" unicode="C" horiz-adv-x="1569" 
d="M1466 309q0 -143 -70.5 -269t-212.5 -205t-341 -79q-233 0 -405.5 118.5t-262.5 303.5t-90 375q0 176 53 334.5t149 278t230.5 187.5t292.5 68q55 0 114 -10.5t120 -35.5t114 -60l37 80h102l131 -463l-116 -35q-44 102 -101 176.5t-117.5 119t-126.5 67t-128 22.5
q-138 0 -241 -87.5t-158.5 -251t-55.5 -380.5q0 -179 55.5 -331t170.5 -244t280 -92q128 0 222.5 55t144 146t49.5 188q0 73 -25.5 133t-77 92.5t-121.5 32.5q-74 0 -103 -31t-38 -86q-9 -48 -41.5 -80.5t-87.5 -32.5q-62 0 -99.5 45t-37.5 113q0 116 106.5 191t243.5 75
q99 0 182.5 -33t140.5 -90.5t88 -135t31 -169.5z" />
    <glyph glyph-name="D" unicode="D" horiz-adv-x="1593" 
d="M1509 698q0 -100 -27.5 -215.5t-101 -225.5t-215 -183.5t-352.5 -73.5h-760v119q93 5 134.5 40t41.5 113v850q0 129 -166 129q-89 0 -163 -27.5t-114 -75t-40 -110.5q0 -35 14 -54t37 -19q12 0 35.5 21t43.5 33.5t58 12.5q51 0 89 -33.5t38 -97.5q0 -67 -54 -114.5
t-146 -47.5q-134 0 -211.5 86.5t-77.5 198.5q0 115 86.5 213.5t239.5 136.5q60 16 122 20.5t156 4.5q33 0 99 -2t98 -2h430q216 0 357.5 -75.5t217.5 -189t103.5 -227.5t27.5 -205zM1210 723q0 107 -28 203.5t-88.5 173t-156 120.5t-228.5 44q-93 0 -135.5 -11.5t-56 -40.5
t-13.5 -96v-866q0 -45 12 -69t58 -37t143 -13q216 0 354.5 136t138.5 456z" />
    <glyph glyph-name="E" unicode="E" 
d="M1405 469l-211 -469h-1141v119q93 5 134.5 40t41.5 113v850q0 129 -166 129q-70 0 -133 -23t-102 -66.5t-39 -100.5q0 -68 39 -68q11 0 32 19.5t41.5 33t57.5 13.5q50 0 88.5 -33t38.5 -96q0 -69 -55 -116.5t-146 -47.5q-87 0 -149 39.5t-91.5 103t-29.5 135.5
q0 112 73.5 200t215.5 128q89 27 272 27q33 0 99 -2t98 -2h778l188 -404l-104 -53q-108 175 -249 244t-316 69q-96 0 -131 -25.5t-35 -97.5v-294h121q103 0 140 53.5t46 197.5h107v-651h-107q-11 107 -31.5 159t-65 74.5t-128.5 22.5h-82v-434q0 -41 8.5 -63.5t28.5 -36.5
t59.5 -19.5t91.5 -5.5q87 0 166.5 17.5t153 60.5t143 117.5t141.5 193.5z" />
    <glyph glyph-name="F" unicode="F" horiz-adv-x="1251" 
d="M1294 993l-102 -49l-53 76q-80 115 -202 173t-269 58q-64 0 -98.5 -11.5t-50 -42.5t-15.5 -89v-274h121q103 0 140 53.5t46 197.5h107v-651h-107q-11 107 -31.5 159t-65 74.5t-128.5 22.5h-82v-418q0 -78 42.5 -113t133.5 -40v-119h-627v119q93 5 134.5 40t41.5 113v850
q0 66 -34.5 97.5t-120.5 31.5q-108 0 -189.5 -55.5t-81.5 -155.5q0 -77 43 -77q13 0 33 18.5t40 30.5t56 12q53 0 87 -39.5t34 -103.5q0 -65 -53 -107.5t-141 -42.5q-121 0 -197 89.5t-76 203.5q0 76 29 144t90.5 120.5t155.5 79.5q103 31 272 31q33 0 99 -2t98 -2h741z" />
    <glyph glyph-name="G" unicode="G" horiz-adv-x="1593" 
d="M1554 584q-91 -12 -123 -48.5t-32 -123.5v-273q0 -92 -9.5 -164t-46.5 -143q-50 -96 -141.5 -167.5t-214.5 -110.5t-270 -39q-169 0 -292.5 40.5t-185 99t-61.5 112.5q0 68 40.5 100.5t90.5 32.5q83 0 119 -78q23 -58 40.5 -86.5t78.5 -56t178 -27.5q115 0 210.5 43.5
t151.5 127.5t56 197q0 33 -0.5 48t-1.5 34q-61 -69 -162 -99t-209 -30q-165 0 -293 56t-216 157.5t-132.5 232.5t-44.5 279q0 197 83.5 362t234.5 263t346 98q55 0 114 -10.5t120 -35.5t114 -60l37 80h102l131 -467l-117 -35q-57 131 -136.5 218t-165.5 127t-171 40
q-120 0 -209.5 -71t-136.5 -202t-47 -311q0 -201 57 -330t150.5 -188t206.5 -59q155 0 248.5 76.5t93.5 220.5q0 76 -40.5 117t-133.5 53v118h589v-118z" />
    <glyph glyph-name="H" unicode="H" horiz-adv-x="1593" 
d="M1540 0h-627v119q92 5 134.5 40t42.5 113v430h-586v-430q0 -78 42.5 -113t133.5 -40v-119h-627v119q93 5 134.5 40t41.5 113v850q0 65 -35 97t-122 32q-116 0 -201.5 -54.5t-85.5 -154.5q0 -36 15 -56.5t40 -20.5q13 0 37 21.5t44 33.5t56 12q51 0 89 -33.5t38 -97.5
q0 -67 -54 -114.5t-146 -47.5q-91 0 -157.5 41.5t-101 106.5t-34.5 137q0 74 33 142.5t98.5 121t159.5 80.5q60 19 127 25t145 6q33 0 99 -2t98 -2h309v-119q-91 -5 -133.5 -40t-42.5 -114v-288h586v288q0 79 -42.5 114t-134.5 40v119h627v-119q-91 -5 -133.5 -40
t-42.5 -114v-850q0 -78 42.5 -113t133.5 -40v-119z" />
    <glyph glyph-name="I" unicode="I" horiz-adv-x="684" 
d="M655 0h-626v119q93 5 134.5 40t41.5 113v850q0 65 -35.5 97t-122.5 32q-116 0 -187 -52t-71 -136q0 -59 41 -59q12 0 45.5 24.5t75.5 24.5q47 0 84 -35t37 -98q0 -44 -22 -80.5t-64.5 -58t-104.5 -21.5q-83 0 -143 38.5t-91.5 101.5t-31.5 136q0 109 60 196.5t200 133.5
q102 33 275 33q33 0 99 -2t97 -2h309v-119q-91 -5 -133.5 -40t-42.5 -114v-850q0 -78 42.5 -113t133.5 -40v-119z" />
    <glyph glyph-name="J" unicode="J" horiz-adv-x="1251" 
d="M1206 1276q-90 -5 -133 -38t-43 -101v-807q0 -198 -117 -310q-53 -51 -166 -88.5t-245 -37.5q-175 0 -294 59.5t-176 151t-57 188.5q0 83 49.5 145t145.5 62q62 0 98.5 -38t36.5 -97q0 -42 -9.5 -59.5t-33.5 -51.5t-24 -57q0 -64 65 -106t156 -42q113 0 179.5 34.5t92 94
t25.5 141.5v803q0 65 -42.5 97t-135.5 32q-77 0 -137.5 -22t-94 -62.5t-33.5 -91.5q0 -59 39 -59q13 0 31 15t35.5 24.5t54.5 9.5q47 0 85 -35t38 -98q0 -67 -50 -113.5t-140 -46.5q-122 0 -194.5 84t-72.5 188q0 64 25.5 128.5t85.5 118t156 81.5q90 27 276 27q34 0 110 -2
t107 -2h307v-119z" />
    <glyph glyph-name="K" unicode="K" horiz-adv-x="1593" 
d="M1604 0h-744v119q104 5 144 20.5t40 50.5q0 23 -24 60l-332 475l-184 -162v-262q0 -56 12 -90t37.5 -55t62 -29t89.5 -8v-119h-652v119q93 5 134.5 40t41.5 113v850q0 65 -35 97t-122 32q-109 0 -173.5 -49.5t-64.5 -130.5q0 -28 13 -46.5t34 -18.5q14 0 35 16t37.5 24.5
t54.5 8.5q48 0 84.5 -35t36.5 -98q0 -67 -50 -113.5t-140 -46.5q-127 0 -203 85.5t-76 190.5q0 101 52.5 192.5t189.5 137.5q91 31 272 31q33 0 99 -2t98 -2h338v-119q-77 -1 -123 -17t-64 -51.5t-18 -99.5v-365l414 367q69 63 69 100q0 28 -33 44t-118 22v119h659v-119
q-72 -5 -143.5 -32.5t-152 -82t-169.5 -133.5l-147 -131l307 -424q111 -153 165.5 -217.5t111 -96t137.5 -40.5v-119z" />
    <glyph glyph-name="L" unicode="L" horiz-adv-x="1366" 
d="M1356 467l-217 -467h-1086v119q93 5 134.5 40t41.5 113v850q0 65 -33.5 97t-119.5 32q-116 0 -187 -52t-71 -136q0 -72 49 -72q14 0 34 15.5t37.5 24.5t53.5 9q47 0 85 -35t38 -98q0 -68 -51 -113.5t-140 -45.5q-91 0 -154.5 43t-94.5 109t-31 136q0 60 25 125t83.5 120
t153.5 87q92 31 272 31q33 0 99 -2t98 -2h334v-119q-122 -3 -163.5 -36.5t-41.5 -131.5v-836q0 -48 9.5 -75t40 -40.5t89.5 -13.5q190 0 330 78.5t266 290.5z" />
    <glyph glyph-name="M" unicode="M" horiz-adv-x="1821" 
d="M1767 0h-651v119q95 11 135.5 27t53 51t12.5 120v922h-4l-449 -1239h-145l-332 1155h-4q4 -100 4 -256q0 -465 -149 -733q-67 -118 -165.5 -202.5t-224 -129.5t-262.5 -45q-162 0 -292 60t-203.5 165.5t-73.5 235.5q0 99 37 180.5t101 141t141.5 90t152.5 30.5
q123 0 194.5 -52t71.5 -134q0 -57 -38 -95t-95 -38q-36 0 -58 13t-51 41.5t-50 42t-52 13.5q-69 0 -126.5 -59t-57.5 -168q0 -129 106.5 -219t294.5 -90q121 0 225 39.5t185.5 117t134.5 187.5q127 266 127 747v92q0 63 -48.5 95t-131.5 32q-146 0 -225.5 -53t-79.5 -133
q0 -20 12 -37.5t31 -17.5q11 0 29 13.5t36.5 22.5t53.5 9q48 0 84 -35t36 -98t-49.5 -105.5t-136.5 -42.5q-126 0 -198 81.5t-72 187.5q0 96 61.5 188t202.5 135q63 21 132.5 27t160.5 6q49 0 134.5 -5t88.5 -5h205l280 -983h4l355 983h542v-119q-91 -5 -133.5 -40
t-42.5 -114v-850q0 -78 42.5 -113t133.5 -40v-119z" />
    <glyph glyph-name="N" unicode="N" horiz-adv-x="1520" 
d="M2128 -207q0 -77 -69.5 -123.5t-182.5 -46.5q-170 0 -332.5 65t-311.5 189.5t-280 302.5q-70 99 -123 181t-132 218t-158 290.5t-150 310.5h-4v-908q0 -78 42.5 -113t133.5 -40v-119h-508v119q93 5 134.5 40t41.5 113v852q0 67 -45.5 97t-144.5 30q-123 0 -203 -45
q-102 -59 -102 -164q0 -30 15.5 -53.5t39.5 -23.5q12 0 35.5 21t43.5 33.5t58 12.5q52 0 89.5 -33.5t37.5 -99.5q0 -68 -54 -114t-146 -46q-91 0 -157.5 41.5t-101 106.5t-34.5 137q0 74 33 142.5t98 121t159 80.5q104 31 273 31q34 0 103 -2t93 -2h240q47 -107 116.5 -246
t152 -287t161.5 -276.5t146 -227.5v764q0 79 -42.5 114t-134.5 40v119h508v-119q-91 -5 -133.5 -40t-42.5 -114v-991q55 -91 141 -175.5t187.5 -136.5t202.5 -52q31 0 62.5 52t50.5 73.5t75 21.5q54 0 86.5 -35t32.5 -86z" />
    <glyph glyph-name="O" unicode="O" horiz-adv-x="1544" 
d="M1460 733q0 -210 -93 -387.5t-255 -281t-356 -103.5q-146 0 -270.5 52t-214.5 145.5t-138.5 218.5t-48.5 266q0 482 510 776l55 -88q-136 -93 -201 -246.5t-65 -382.5q0 -96 20 -199t65.5 -195t122.5 -148t181 -56q194 0 291.5 167t97.5 493q0 71 -15.5 160.5t-47.5 171
t-83.5 137t-121.5 55.5q-78 0 -127 -82.5t-49 -228.5q0 -45 16 -90t41 -45q10 0 32 17t39 26.5t42 9.5q41 0 67.5 -18.5t38 -44t11.5 -52.5q0 -76 -50 -114.5t-127 -38.5q-88 0 -152.5 48.5t-97 128.5t-32.5 175q0 94 31.5 178.5t85 146.5t121.5 95t139 33q152 0 276 -93
t193 -255t69 -351z" />
    <glyph glyph-name="P" unicode="P" horiz-adv-x="1366" 
d="M1290 975q0 -179 -136.5 -277t-418.5 -98h-231v-328q0 -78 42.5 -113t133.5 -40v-119h-627v119q93 5 134.5 40t41.5 113v850q0 66 -33 97.5t-118 31.5q-115 0 -186.5 -55t-71.5 -139q0 -60 43 -60q11 0 32.5 16t39 25t47.5 9q48 0 84 -35t36 -99q0 -67 -50.5 -113
t-139.5 -46q-83 0 -143 41t-91.5 103.5t-31.5 131.5q0 94 61 189t203 143q105 37 270 37q33 0 99 -2t98 -2h321q291 0 441.5 -93t150.5 -327zM1004 1008q0 256 -312 256q-109 0 -148.5 -33t-39.5 -96v-398q56 -6 108 -6q153 0 240 32t119.5 92.5t32.5 152.5z" />
    <glyph glyph-name="Q" unicode="Q" horiz-adv-x="1593" 
d="M1509 696q0 -253 -133 -436q97 -102 97 -235q0 -82 -48 -164t-140 -148t-231 -106.5t-311 -40.5q-154 0 -301 36t-242.5 108t-95.5 173q0 56 37.5 89.5t96.5 33.5q139 0 153 -158q12 -127 307 -127q229 0 358.5 73t129.5 196q0 41 -19 78q-161 -95 -370 -95
q-162 0 -295.5 56t-226.5 157t-142 233t-49 277q0 147 49 279t142 233t226.5 157t295.5 56q216 0 378 -97.5t248 -262.5t86 -365zM1210 696q0 137 -28.5 244.5t-83.5 183.5t-130.5 115t-170.5 39q-94 0 -170 -39t-130.5 -114.5t-84 -183.5t-29.5 -245q0 -113 24 -210
t69 -173.5t106 -124.5l4 5q-17 43 -17 67q0 97 82 147t219 50q150 0 289 -54q51 130 51 293zM1038 215q-101 61 -215 61q-135 0 -135 -79q0 -80 109 -80q52 0 123.5 27t117.5 71z" />
    <glyph glyph-name="R" unicode="R" 
d="M1483 0h-373l-448 635h-158v-363q0 -78 42.5 -113t133.5 -40v-119h-627v119q93 5 134.5 40t41.5 113v850q0 67 -31 98t-120 31q-105 0 -188 -51t-83 -139q0 -30 17 -51t39 -21q17 0 29 8t30.5 23.5t37.5 24t46 8.5q52 0 86.5 -32.5t34.5 -98.5q0 -67 -55.5 -114.5
t-147.5 -47.5q-133 0 -212 87t-79 197q0 69 28.5 133t89 113.5t155.5 77.5q103 31 270 31q33 0 99 -2t98 -2h442q276 0 389 -102t113 -263q0 -100 -43.5 -176.5t-121 -125.5t-175.5 -69l299 -403q54 -74 91 -99t116 -38v-119zM1018 1020q0 244 -311 244q-88 0 -131.5 -10.5
t-57.5 -38.5t-14 -87v-362h135q105 0 177 15t117 45.5t65 78t20 115.5z" />
    <glyph glyph-name="S" unicode="S" horiz-adv-x="1343" 
d="M1272 268q0 -139 -76.5 -258t-217.5 -189.5t-323 -70.5q-187 0 -327 55.5t-213.5 150.5t-73.5 208q0 104 47 182.5t133.5 123t200.5 44.5q80 0 135.5 -21t89.5 -54t49 -70.5t15 -71.5q0 -68 -38.5 -103.5t-101.5 -35.5q-51 0 -76.5 20.5t-47 61t-41 60t-60.5 19.5
q-31 0 -63 -15.5t-54 -51t-22 -92.5q0 -111 109 -190t307 -79q133 0 225.5 46t137 120.5t44.5 161.5q0 98 -64.5 163.5t-199.5 123.5l-295 127q-171 73 -255.5 169.5t-84.5 223.5q0 113 63 203.5t172.5 141t243.5 50.5q107 0 190.5 -31t131.5 -67l20 86h103l127 -453
l-107 -32q-47 103 -118.5 183.5t-162 125.5t-186.5 45q-104 0 -163.5 -51.5t-59.5 -130.5q0 -73 54 -120t161 -95l293 -129q122 -55 203 -113t128.5 -147t47.5 -224z" />
    <glyph glyph-name="T" unicode="T" horiz-adv-x="1368" 
d="M1503 1378q-153 -260 -532 -260q-11 0 -70 5.5t-80 6.5v-843q0 -66 17.5 -101.5t62.5 -50.5t125 -16v-119h-684v119q80 1 125 16t62.5 50.5t17.5 101.5v895q-184 41 -248 41q-121 0 -192.5 -49t-71.5 -138q0 -61 29 -93t69 -32q21 0 34.5 16.5t43.5 61.5q37 58 108 58
q31 0 60 -16.5t46 -47.5t17 -68q0 -82 -69 -137t-178 -55q-93 0 -165.5 42t-112.5 114t-40 155q0 76 37 146.5t104.5 124.5t160.5 85t206 31q127 0 375 -55l137 -31q97 -21 154 -30t104 -9q78 0 135.5 33t118.5 113z" />
    <glyph glyph-name="U" unicode="U" 
d="M1450 1276q-91 -5 -133.5 -40t-42.5 -114v-702q0 -188 -111 -317.5t-426 -129.5q-170 0 -289.5 49.5t-181 144.5t-61.5 224v731q0 129 -185 129q-70 0 -135.5 -22.5t-107 -69t-41.5 -110.5q0 -27 11 -48.5t32 -21.5q13 0 35 21.5t40.5 34t53.5 12.5q49 0 88 -33.5
t39 -98.5q0 -68 -54.5 -114.5t-146.5 -46.5q-130 0 -201 85t-71 199q0 72 32 136.5t97.5 116t158.5 77.5q109 31 273 31q33 0 112 -2t109 -2h311v-119q-91 -5 -133.5 -40t-42.5 -114v-682q0 -164 84 -237.5t232 -73.5q116 0 184.5 28.5t101 79.5t41 115.5t8.5 155.5v614
q0 79 -41.5 114t-134.5 40v119h496v-119z" />
    <glyph glyph-name="V" unicode="V" horiz-adv-x="1366" 
d="M1397 1276q-64 -9 -106 -48.5t-79 -135.5l-419 -1104h-199l-408 1087q-34 93 -72 134.5t-124 41.5q-98 0 -158.5 -43.5t-60.5 -115.5q0 -25 12.5 -42.5t30.5 -17.5q12 0 44.5 24.5t73.5 24.5q48 0 85.5 -35t37.5 -98q0 -67 -50 -113.5t-140 -46.5q-128 0 -198 85t-70 194
q0 94 54.5 177t174.5 122q62 22 111.5 27.5t154.5 5.5q29 0 88 -2t109 -2h301v-119q-100 -4 -129 -21.5t-29 -58.5q0 -36 23 -94l305 -828l289 791q20 59 20 104q0 51 -32 74.5t-124 32.5v119h484v-119z" />
    <glyph glyph-name="W" unicode="W" horiz-adv-x="1933" 
d="M1944 1276q-64 -14 -99.5 -39t-59.5 -70.5t-56 -142.5l-336 -1036h-168l-254 800h-4l-256 -800h-168l-375 1136q-22 69 -53.5 98t-89.5 29q-96 0 -152.5 -51.5t-56.5 -126.5q0 -19 10 -43t31 -24q8 0 26.5 15t34 23.5t39.5 8.5q58 0 91.5 -36.5t33.5 -105.5
q0 -67 -45.5 -109t-128.5 -42q-135 0 -200.5 94t-65.5 205q0 186 163 282q46 27 119 42.5t137 15.5q26 0 73 -2t75 -2h342v-119q-125 -3 -125 -68q0 -33 27 -114l233 -760h4l211 639l-29 96q-34 116 -86.5 158t-121.5 49v119h577v-119q-137 -3 -137 -70q0 -20 29 -110
l239 -748h4l213 727q19 60 19 105q0 48 -36.5 69t-111.5 27v119h484v-119z" />
    <glyph glyph-name="X" unicode="X" 
d="M1487 0h-680v119q154 15 154 63q0 23 -29 64l-246 348l-164 -193q-141 -167 -261 -274t-235.5 -162t-236.5 -55q-127 0 -196.5 55.5t-69.5 118.5q0 64 40 100.5t97 36.5q45 0 71 -15.5t54 -46.5t49 -45t55 -14q107 0 237 101.5t329 341.5l141 170l-307 403
q-42 58 -85.5 89.5t-103.5 31.5q-81 0 -126.5 -44t-45.5 -99q0 -58 43 -58q4 0 32 13.5t48 13.5q129 0 129 -131q0 -67 -49 -107.5t-115 -40.5q-123 0 -192.5 79.5t-69.5 195.5q0 162 127 258q110 82 361 82q37 0 91 -2t75 -2h299v-119q-129 -7 -129 -47q0 -30 59 -111
l158 -219l182 211q65 75 65 109q0 46 -102 57v119h537v-119q-191 -19 -353 -205l-254 -293l371 -497q52 -69 116 -113.5t130 -48.5v-119z" />
    <glyph glyph-name="Y" unicode="Y" horiz-adv-x="1366" 
d="M1886 1597q0 -50 -36 -92.5t-107 -42.5q-46 0 -62.5 9.5t-47 35t-56.5 25.5q-117 0 -311 -235t-478 -701v-322q0 -56 15 -88t57.5 -47.5t122.5 -19.5v-119h-692v119q109 15 151 29t57 48t15 113v316l-301 495q-26 43 -48.5 71.5t-52 43t-77.5 14.5q-113 0 -177.5 -48.5
t-64.5 -131.5q0 -26 13.5 -42.5t33.5 -16.5q12 0 45.5 24.5t75.5 24.5q48 0 84.5 -35t36.5 -98q0 -44 -22 -80.5t-64.5 -58t-104.5 -21.5q-125 0 -198.5 83t-73.5 202q0 57 22 120t81 119.5t159 83.5q81 23 256 23q72 0 118.5 -0.5t100.5 -1.5h252v-119q-143 0 -143 -53
q0 -31 45 -103l221 -360q89 150 181.5 295.5t225 312.5t276.5 280t272 113q51 0 96.5 -17.5t74.5 -54.5t29 -92z" />
    <glyph glyph-name="Z" unicode="Z" horiz-adv-x="1446" 
d="M1393 260q0 -72 -34 -141t-94.5 -121.5t-139.5 -81.5t-171 -29q-88 0 -174 24.5t-190.5 69.5t-170.5 69t-120 24q-103 0 -201 -60l-65 82l878 1168h-209q-91 0 -167.5 -23.5t-142 -68.5t-111.5 -100t-86 -128l-109 43l184 408h961l31 -95l-826 -1103l2 -2q52 10 107 10
q74 0 144 -17t157.5 -50.5t126 -44.5t86.5 -11q77 0 124.5 49.5t47.5 120.5q0 38 -17.5 63t-39.5 25q-23 0 -50 -30.5t-45 -44t-65 -13.5q-54 0 -90.5 39t-36.5 94q0 84 61.5 132t149.5 48q56 0 110 -21.5t95.5 -62.5t65.5 -98.5t24 -122.5z" />
    <glyph glyph-name="a" unicode="a" 
d="M1513 0h-630v119q100 3 140 18t40 45q0 22 -25 84l-98 250h-516q-147 -292 -351.5 -475.5t-496.5 -183.5q-87 0 -171.5 29t-151 85.5t-105.5 138.5t-39 181q0 129 61 236.5t169.5 170t244.5 62.5q91 0 151 -49t60 -111q0 -68 -41.5 -104.5t-111.5 -36.5q-34 0 -55 9
t-46 28.5t-43 29t-47 9.5q-75 0 -122.5 -66.5t-47.5 -171.5q0 -85 38.5 -150.5t110 -102t167.5 -36.5q107 0 204 39t186.5 116t172 191t159.5 267q61 117 187 413q24 57 24 123q0 51 -67 79t-176 28q-110 0 -174 -48.5t-64 -117.5q0 -66 43 -66q3 0 43 27q28 20 68 20
q52 0 91.5 -31.5t39.5 -101.5q0 -61 -49 -102t-131 -41q-113 0 -196 78t-83 211q0 80 47.5 153.5t142 119.5t232.5 46q60 0 108 -6.5t129 -21.5t120.5 -20t103.5 -5h127l430 -1059q30 -71 52.5 -105t55 -50.5t90.5 -24.5v-119zM891 647l-201 514q-28 -91 -96 -263t-107 -251
h404z" />
    <glyph glyph-name="b" unicode="b" horiz-adv-x="1198" 
d="M1118 487q0 -139 -53 -255.5t-153 -184t-234 -67.5q-209 0 -295 106l-27 -86h-192v877q0 162 71.5 281.5t180 190.5t221 102.5t201.5 31.5q280 0 280 -148q0 -49 -32.5 -81.5t-79.5 -32.5q-41 0 -66.5 16.5t-56 48t-60.5 49t-80 17.5q-64 0 -142.5 -43.5t-132.5 -128.5
t-54 -201v-31q49 34 124 55t134 21q84 0 161.5 -25.5t143 -87t103.5 -166.5t38 -258zM868 502q0 110 -25.5 194.5t-82.5 134.5t-146 50q-59 0 -115.5 -25t-84.5 -65v-578q29 -40 85 -65t115 -25q131 0 192.5 105.5t61.5 273.5z" />
    <glyph glyph-name="c" unicode="c" horiz-adv-x="1438" 
d="M1343 297q0 -113 -50 -216.5t-155 -187t-265.5 -131t-376.5 -47.5q-220 0 -403 43.5t-285.5 114t-102.5 143.5q0 66 38 103t101 37q58 0 95 -34t49 -85q26 -101 167 -147t326 -46q282 0 421.5 113t139.5 319q0 100 -24 173t-65.5 119t-94 67.5t-106.5 21.5h-273v-387
q0 -81 30 -114t118 -37v-119h-545v119q73 7 98 39.5t25 113.5v852q0 71 -37.5 99t-112.5 28q-137 0 -218 -59t-81 -150q0 -23 11 -39t30 -16q14 0 44.5 24.5t70.5 24.5q48 0 84.5 -35.5t36.5 -99.5q0 -67 -51 -112.5t-140 -45.5q-120 0 -190 84.5t-70 190.5
q0 101 56.5 191.5t193.5 144.5q113 45 279 45q33 0 99 -2t97 -2h467q147 0 259.5 -33.5t178.5 -112.5t66 -207q0 -76 -29 -138t-82 -104t-123 -65l-49 -16v-4l39 -8q87 -19 156.5 -76.5t111 -145t41.5 -188.5zM1008 1024q0 118 -68.5 179t-249.5 61q-79 0 -125 -13t-66 -45
t-20 -86v-313h191q149 0 243.5 47.5t94.5 169.5z" />
    <glyph glyph-name="e" unicode="e" horiz-adv-x="1161" 
d="M1110 295q-67 -146 -180.5 -230.5t-311.5 -84.5q-254 0 -396 153t-142 381q0 121 41.5 216.5t113 161t164 99t193.5 33.5q125 0 218 -40.5t154.5 -119t100.5 -198.5l-707 -236q16 -130 96 -223.5t220 -93.5q76 0 140.5 27.5t114 79t81.5 122.5zM782 694v19q0 51 -23.5 95
t-69.5 70.5t-109 26.5q-99 0 -169.5 -70.5t-70.5 -213.5q0 -43 4 -70z" />
    <glyph glyph-name="f" unicode="f" horiz-adv-x="653" 
d="M903 1315q0 -47 -27.5 -78t-78.5 -31q-41 0 -64 19t-47 57t-45.5 57t-62.5 19q-64 0 -102 -36.5t-38 -113.5v-219h226v-131h-226v-633q0 -191 -69.5 -315t-173.5 -188t-210 -88.5t-188 -24.5q-113 0 -184.5 35t-71.5 108q0 48 32.5 72t82.5 24q32 0 53.5 -13t53 -38.5
t61.5 -39t70 -13.5q73 0 140 39.5t110.5 127.5t43.5 220v727h-176v131h176v113q0 106 55.5 193.5t157 137.5t230.5 50q101 0 186.5 -46.5t85.5 -121.5z" />
    <glyph glyph-name="h" unicode="h" horiz-adv-x="1364" 
d="M1290 0h-530v119q70 11 97.5 35.5t27.5 89.5v475q0 93 -33 127.5t-96 34.5q-142 0 -277 -119v-508q0 -67 32 -100.5t124 -34.5v-119h-561v119q93 1 124 33.5t31 101.5v666q0 157 70 271.5t176.5 182.5t224 99.5t213.5 31.5q93 0 165.5 -21.5t111.5 -61t39 -89.5
q0 -31 -15.5 -57.5t-41 -41.5t-56.5 -15q-46 0 -67.5 16.5t-54.5 58t-69.5 63t-103.5 21.5q-41 0 -95 -14.5t-110.5 -55.5t-96.5 -121.5t-40 -203.5v-82q158 123 355 123q129 0 215 -67t86 -216v-487q0 -67 31 -100.5t124 -34.5v-119z" />
    <glyph glyph-name="j" unicode="j" horiz-adv-x="700" 
d="M655 1276q-90 -5 -133 -38t-43 -101v-1076q0 -223 -145 -323t-324 -100q-126 0 -250.5 48.5t-124.5 161.5q0 56 35 91.5t101 35.5q48 0 85 -20t56.5 -53t19.5 -66q0 -15 -0.5 -21.5t-1.5 -13.5q0 -34 95 -34q76 0 128 45.5t52 162.5v1121q0 73 -20 110t-65.5 52
t-127.5 18v119h663v-119z" />
    <glyph glyph-name="k" unicode="k" horiz-adv-x="1313" 
d="M1968 -166q0 -34 -22 -65t-65 -56.5t-107.5 -40t-139.5 -14.5q-212 0 -376 84t-284.5 223t-201.5 285.5t-199 392.5q-59 -93 -82.5 -182.5t-23.5 -206.5q0 -67 31 -100.5t125 -34.5v-119h-562v119q94 1 125 33.5t31 101.5v864q0 42 -10 63t-42.5 31t-103.5 15v119
q77 5 156.5 22t147.5 45h102v-745q62 107 147 220t186 206t217 151t238 58q65 0 118.5 -18.5t83.5 -53.5t30 -80q0 -41 -30.5 -67.5t-70.5 -26.5q-35 0 -57.5 10t-49.5 30.5t-49 32t-54 11.5q-196 0 -408 -252q114 -357 259 -605.5t303 -370.5t315 -122q38 0 73 10.5
t39 34.5q8 41 34.5 74t76.5 33q30 0 53.5 -13.5t35 -38t11.5 -57.5z" />
    <glyph glyph-name="l" unicode="l" horiz-adv-x="1593" 
d="M2355 -223q0 -54 -41 -104t-123.5 -80.5t-201.5 -30.5q-110 0 -225 30t-230 87.5t-219.5 136.5t-200.5 186q-83 96 -141 176.5t-111 173.5t-84 157t-96 212l-178 -158v-291q0 -85 52.5 -119t125.5 -34v-119h-627v119q92 5 133 39.5t41 113.5v850q0 66 -34.5 97.5
t-120.5 31.5q-109 0 -173.5 -49.5t-64.5 -130.5q0 -65 47 -65q12 0 34.5 17t40.5 25.5t52 8.5q48 0 84.5 -35.5t36.5 -99.5q0 -66 -50.5 -112t-139.5 -46q-86 0 -149.5 40.5t-96.5 104t-33 129.5q0 102 54 194.5t190 135.5q96 31 270 31q33 0 99 -2t98 -2h336v-119
q-105 -6 -155 -41t-50 -113v-379l414 367q39 36 54 57t15 43q0 28 -33 44t-118 22v119h659v-119q-105 -6 -218 -65t-247 -181l-117 -106q64 -175 159.5 -358t210.5 -341t241 -272q125 -115 242.5 -173.5t211.5 -58.5q42 0 61 23t34 84q10 42 46.5 70t84.5 28q151 0 151 -149
z" />
    <glyph glyph-name="m" unicode="m" horiz-adv-x="2623" 
d="M2611 156q0 -68 -64.5 -126.5t-275.5 -58.5q-89 0 -168.5 3.5t-274 14.5t-235.5 11h-268v119q70 15 96.5 27.5t35.5 38.5t9 77v486q0 68 -29 100.5t-102 32.5q-95 0 -198 -74l-45 -33v-520q0 -67 31 -100.5t124 -34.5v-119h-547v119q70 15 96.5 27.5t36 38t9.5 77.5v486
q0 68 -29 100.5t-102 32.5q-96 0 -199 -74l-45 -33v-520q0 -67 31 -100.5t125 -34.5v-119h-562v119q94 1 125 33.5t31 101.5v455q0 41 -10 62t-42.5 31t-103.5 15v119q190 12 304 88h90v-123q63 60 148.5 91.5t174.5 31.5q104 0 167.5 -29t109.5 -106q64 56 163 95.5
t181 39.5q137 0 206.5 -48t90 -116t20.5 -158v-448q0 -58 19.5 -89.5t103 -51t270.5 -19.5q137 0 200 15.5t63 48.5q0 5 -0.5 12t-1.5 16q0 46 32 75.5t76 29.5q52 0 92.5 -32t40.5 -103z" />
    <glyph glyph-name="n" unicode="n" horiz-adv-x="2042" 
d="M2030 156q0 -67 -64.5 -126t-275.5 -59q-89 0 -168.5 3.5t-274 14.5t-235.5 11h-252v119q70 11 97.5 35.5t27.5 89.5v475q0 93 -33 127.5t-96 34.5q-142 0 -277 -119v-508q0 -67 32 -100.5t124 -34.5v-119h-561v119q93 1 124 33.5t31 101.5v455q0 41 -10 62t-42 31
t-103 15v119q189 12 303 88h90v-133q82 67 174.5 100t192.5 33q129 0 215 -67t86 -216v-487q0 -58 19.5 -89.5t103 -51t270.5 -19.5q262 0 262 64q0 5 -0.5 12t-1.5 16q0 46 32 75.5t76 29.5q53 0 93.5 -32t40.5 -103z" />
    <glyph glyph-name="o" unicode="o" horiz-adv-x="1266" 
d="M1921 1028q0 -61 -30 -100t-89 -39q-45 0 -69.5 17.5t-42.5 51t-34 51t-50 17.5q-67 0 -139.5 -35.5t-161.5 -98t-177 -124.5q46 -117 46 -254q0 -107 -37.5 -205t-109.5 -172t-172.5 -115.5t-227.5 -41.5q-126 0 -227 41.5t-173 115.5t-109.5 172t-37.5 205
q0 126 39.5 230t109.5 178t164 116q52 25 94 25q37 0 37 -37q0 -20 -14 -35q-156 -171 -156 -483q0 -113 29.5 -202.5t91.5 -142t152 -52.5q272 0 272 397q0 70 -6 131q-87 -35 -180 -35q-72 0 -124.5 27t-80 76t-27.5 110q0 100 79 167t196 67q94 0 175 -45.5t140 -131.5
q96 76 166 132t141 103.5t146.5 77.5t156.5 30q62 0 117.5 -23.5t89 -66.5t33.5 -99zM870 756q-23 79 -62.5 121.5t-92.5 42.5q-46 0 -68 -28.5t-22 -64.5q0 -41 33.5 -68.5t80.5 -27.5q68 0 131 25z" />
    <glyph glyph-name="p" unicode="p" horiz-adv-x="1251" 
d="M1403 -291q0 -45 -34.5 -97.5t-97.5 -97.5t-158 -74.5t-206 -29.5q-54 0 -128 15.5t-200.5 49t-223.5 53t-177 19.5q-76 0 -170 -20l-26 113q90 17 142 65t72.5 112.5t20.5 137.5v754q0 41 -10 62t-42.5 31t-103.5 15v119q190 12 304 88h90v-113q69 64 134 88.5t150 24.5
q108 0 205 -47.5t162 -168t65 -321.5q0 -106 -30.5 -198.5t-88.5 -162.5t-140 -108t-179 -38q-71 0 -139 27.5t-127 66.5v-119q0 -95 -36 -186.5t-112 -126.5v-4q119 26 205 26q74 0 139 -14.5t145.5 -42t120.5 -38.5t87 -11q83 0 130.5 30.5t47.5 65.5q0 10 -7 28.5
t-7 34.5q0 55 32 86t82 31q49 0 79 -31t30 -94zM922 502q0 168 -61 273.5t-191 105.5q-61 0 -115.5 -25t-87.5 -65v-578q82 -90 203 -90q129 0 190.5 105.5t61.5 273.5z" />
    <glyph glyph-name="q" unicode="q" horiz-adv-x="1251" 
d="M1974 -213q0 -45 -30.5 -107t-91 -120.5t-158 -98t-224.5 -39.5q-90 0 -170 21.5t-208.5 68t-210.5 69t-168 22.5q-75 0 -154 -21l-22 105q121 18 178 54t70.5 86t13.5 148v101q-52 -46 -124.5 -71t-156.5 -25q-104 0 -186 42t-139.5 117t-85 167.5t-27.5 197.5
q0 219 115 369.5t323 150.5q54 0 108.5 -10t102.5 -32t82 -54l33 96h205v-1049q0 -196 -131 -270q26 2 69 2q75 0 142 -18t153.5 -49.5t145.5 -47.5t128 -16q103 0 157 33.5t54 79.5q0 15 -10 37.5t-15 34.5t-5 36q0 61 36 95t82 34q31 0 58.5 -13.5t44 -44.5t16.5 -81z
M799 213v578q-26 39 -83.5 64.5t-119.5 25.5q-131 0 -192.5 -105.5t-61.5 -273.5t62 -273.5t192 -105.5q62 0 119 25.5t84 64.5z" />
    <glyph glyph-name="r" unicode="r" horiz-adv-x="778" 
d="M1573 1206q0 -43 -28.5 -79.5t-92.5 -36.5q-40 0 -59.5 13t-55.5 50t-70 54.5t-98 17.5q-169 0 -343 -138.5t-347 -359.5v-473q0 -69 35.5 -102t144.5 -33v-119h-585v119q93 1 124 33.5t31 101.5v455q0 41 -10 62t-42 31t-103 15v119q189 12 303 88h90v-133
q228 267 420 381t395 114q79 0 145 -21.5t106 -62t40 -96.5z" />
    <glyph glyph-name="s" unicode="s" horiz-adv-x="1483" 
d="M2347 -197q0 -66 -44 -118t-143.5 -83.5t-258.5 -31.5q-66 0 -152.5 17.5t-184.5 54.5t-193 92.5t-177 126.5q-92 82 -167.5 173t-135.5 187t-105.5 185t-111.5 229h-170v-363q0 -78 42.5 -113t133.5 -40v-119h-627v119q93 5 134.5 40t41.5 113v850q0 68 -32.5 98.5
t-135.5 30.5q-107 0 -181.5 -42t-74.5 -130q0 -30 14 -55t40 -25q9 0 32 21.5t44.5 35t52.5 13.5q61 0 95 -34.5t34 -102.5t-52.5 -112t-144.5 -44q-94 0 -160 41.5t-97.5 108.5t-31.5 137q0 103 67 188.5t204 120.5q104 27 274 27q33 0 99 -2t98 -2h442q276 0 389 -102
t113 -263q0 -73 -27 -138t-74.5 -112.5t-110.5 -79.5t-136 -47q93 -199 256 -434q179 -258 365.5 -383t379.5 -125q46 0 77.5 14t31.5 33q0 5 -4 22t-4 30q0 56 36 95.5t93 39.5q67 0 107 -39t40 -103zM1018 1020q0 244 -311 244q-88 0 -131.5 -10.5t-57.5 -38.5t-14 -87
v-362h135q105 0 177 15t117 45.5t65 78t20 115.5z" />
    <glyph glyph-name="t" unicode="t" horiz-adv-x="799" 
d="M850 123q-155 -143 -363 -143q-268 0 -268 258v634h-156v127q60 0 97.5 12t54 38t16.5 69q0 48 -31.5 84t-89 57t-133.5 21q-107 0 -171 -48t-64 -126q0 -53 17.5 -85.5t43 -49.5t39.5 -27q13 -9 13 -18q0 -21 -58 -21q-122 0 -195 70t-73 168q0 91 57 153t146.5 91.5
t185.5 29.5q76 0 235 -24.5t267 -24.5h49v-364h274v-132h-274v-573q0 -86 28.5 -125t92.5 -39q85 0 186 74z" />
    <glyph glyph-name="u" unicode="u" horiz-adv-x="1366" 
d="M1966 1620q0 -58 -34 -100.5t-103 -42.5q-34 0 -55 12.5t-43.5 37t-39 36.5t-44.5 12q-124 0 -234 -141q-72 -93 -156 -274.5t-149.5 -350t-171 -452t-141.5 -369.5h-199l-412 1091q-32 84 -43.5 107.5t-40 44t-80.5 20.5q-87 0 -144.5 -43t-57.5 -112q0 -60 37 -60
q14 0 47 20.5t63 20.5q53 0 87 -33t34 -98q0 -67 -47.5 -114.5t-130.5 -47.5q-87 0 -146.5 43t-88.5 109.5t-29 134.5q0 89 49.5 174.5t181.5 126.5q87 27 268 27q29 0 88 -2t109 -2h252v-119q-100 -4 -129 -21.5t-29 -58.5q0 -36 23 -94l303 -819q26 67 70.5 193.5
t97.5 273.5t94.5 253.5t97.5 233.5q251 551 602 551q106 0 175 -46.5t69 -121.5z" />
    <glyph glyph-name="v" unicode="v" horiz-adv-x="1063" 
d="M1741 1176q0 -48 -32 -77.5t-83 -29.5q-41 0 -71.5 19.5t-60 39t-71.5 19.5q-143 0 -273 -125.5t-231.5 -308t-193 -408t-127.5 -317.5h-178l-311 774q-27 69 -58 96t-71 27h-11v119h506v-107q-121 0 -121 -63q0 -42 37 -136l178 -448q88 221 165 386.5t188.5 325.5
t264.5 263.5t341 103.5q77 0 145 -42.5t68 -110.5z" />
    <glyph glyph-name="w" unicode="w" horiz-adv-x="1581" 
d="M2175 1171q0 -45 -33.5 -74.5t-79.5 -29.5q-29 0 -45.5 7.5t-39 24t-43 25.5t-48.5 9q-131 0 -245 -127.5t-200 -307t-152 -360.5t-126 -350h-213l-166 561h-4l-166 -561h-213l-223 757q-24 85 -72 112.5t-77 27.5h-4v119h475v-107q-57 -10 -78 -24t-21 -39
q0 -26 29 -125l137 -484h4l123 430q17 60 17 99q0 112 -136 143v107h472v-107q-59 -9 -79 -23t-20 -45q0 -29 21 -98l147 -506h4q48 127 124 324.5t176 371t237.5 289t308.5 115.5q56 0 104.5 -17.5t76.5 -52t28 -84.5z" />
    <glyph glyph-name="x" unicode="x" horiz-adv-x="1958" 
d="M2447 1579q0 -59 -31.5 -97t-95.5 -38q-24 0 -40 5.5t-36 18t-36.5 19t-38.5 6.5q-94 0 -181 -101t-182 -319q-36 -85 -101.5 -254t-109 -288t-98.5 -272t-94 -271h-178l-254 800h-4l-256 -800h-168l-375 1136q-22 69 -54.5 98t-113.5 29q-105 0 -164 -47.5t-59 -124.5
q0 -24 12.5 -41.5t28.5 -17.5q12 0 45.5 24.5t75.5 24.5q50 0 92.5 -35t42.5 -102t-51.5 -111.5t-139.5 -44.5t-151 41t-96 105t-33 131q0 95 59.5 184t194.5 133q56 19 112 24t164 5q33 0 99 -2t98 -2h221v-119q-125 -3 -125 -68q0 -33 27 -114l233 -760h4l211 639l-29 96
q-34 116 -86.5 158t-121.5 49v119h577v-119q-137 -3 -137 -70q0 -20 29 -110l239 -748h4q63 175 101 282t69.5 192t71.5 184t90 219q110 256 247.5 383t287.5 127q61 0 106.5 -20t71.5 -56t26 -80z" />
    <glyph glyph-name="y" unicode="y" horiz-adv-x="1112" 
d="M1595 1161q0 -48 -32 -81t-88 -33q-29 0 -73.5 17t-76.5 17q-67 0 -121.5 -39.5t-107.5 -122t-118.5 -219t-160.5 -350.5l-115 -260q-103 -236 -254 -383t-366 -147q-73 0 -136 21t-98.5 60t-35.5 87q0 51 34 90t97 39q39 0 60 -17t44.5 -50.5t49.5 -51t67 -17.5
q65 0 117.5 23t96 67.5t81.5 104.5q2 3 4.5 7.5t10 16t14 23t10.5 17.5l-348 774q-32 68 -69.5 95.5t-96.5 35.5v119h548v-119q-78 -4 -105.5 -17.5t-27.5 -40.5q0 -36 31 -108l209 -467l135 303q120 270 206.5 422t192.5 235.5t254 83.5q38 0 77.5 -13t65 -43.5t25.5 -78.5
z" />
    <glyph glyph-name="z" unicode="z" horiz-adv-x="2189" 
d="M2109 553q0 -350 -223 -643q-66 -86 -153.5 -167.5t-185.5 -137.5t-177 -56q-52 0 -82.5 24t-30.5 65q0 50 45 84t109 34q22 0 42 -5t28 -5q54 0 117.5 52.5t120 152t91.5 238.5t35 313q0 130 -19.5 214.5t-59 122.5t-101.5 38q-109 0 -246 -125v-498q0 -67 32 -100.5
t124 -34.5v-119h-541v119q82 0 108.5 32.5t26.5 102.5v659q0 102 7 148q-61 3 -127 10.5t-134 18.5t-149 24v-827q0 -66 17.5 -101.5t62.5 -50.5t125 -16v-119h-684v119q80 1 125 16t62.5 50.5t17.5 101.5v872q-126 29 -248 29q-75 0 -134.5 -21t-94.5 -62.5t-35 -96.5
q0 -47 31 -80t69 -33q21 0 38.5 19t39.5 59q12 22 40.5 39.5t65.5 17.5q46 0 85.5 -37t39.5 -94q0 -55 -32 -100.5t-89.5 -72t-128.5 -26.5q-140 0 -228.5 89.5t-88.5 218.5q0 74 39.5 145.5t114 129.5t172.5 90t208 32q104 0 240.5 -27.5t348 -82t280.5 -68.5
q42 83 104 142.5t127 92.5t119.5 45.5t95.5 12.5q129 0 176 -50.5t47 -117.5q0 -92 -74.5 -156.5t-181 -96t-219.5 -36.5v-162q65 59 140 95t176 36q123 0 207.5 -56.5t125.5 -163t41 -259.5zM1739 1335q0 64 -76 64q-50 0 -99.5 -29.5t-86 -76t-47.5 -93.5q18 -2 59 -2
q63 0 121 21t93.5 53t35.5 63z" />
    <glyph glyph-name="uni00A0" unicode="&#xa0;" horiz-adv-x="1354" 
 />
    <glyph glyph-name="cent" unicode="&#xa2;" horiz-adv-x="844" 
d="M795 494q-54 -83 -123 -121.5t-170 -44.5v-283h-103v283q-145 16 -231 112.5t-86 229.5q0 139 88 223t229 100v252h103v-250q114 -6 189 -52.5t75 -123.5q0 -42 -21.5 -72t-70.5 -30q-39 0 -58 20t-33.5 61t-30 65t-50.5 32v-455q84 0 140 25t99 76zM399 467v424
q-48 -6 -76 -64.5t-28 -130.5q0 -83 27 -144t77 -85z" />
    <glyph glyph-name="ae" unicode="&#xe6;" horiz-adv-x="1763" 
d="M1712 313q-45 -99 -112 -172t-161.5 -116t-217.5 -43q-129 0 -248 55.5t-172 150.5q-156 -206 -447 -206q-137 0 -216 77.5t-79 173.5q0 113 77.5 193t228 126.5t360.5 63.5v123q0 83 -56 124.5t-151 41.5q-68 0 -110 -29.5t-48 -78.5q-9 -86 -43 -120t-102 -34
q-56 0 -85.5 38t-29.5 81q0 56 31 105t86.5 83.5t136 54t172.5 19.5q79 0 146.5 -15t120 -42t81.5 -62q136 119 345 119q119 0 211.5 -47t150.5 -138.5t76 -220.5l-696 -98q0 -115 36 -207t107 -144t172 -52q132 0 213.5 72.5t122.5 170.5zM1384 696v19q0 51 -23.5 95
t-69.5 70.5t-109 26.5q-81 0 -151 -60t-70 -194v-16zM725 315v185q-78 -7 -160.5 -26t-137.5 -45.5t-87.5 -67t-32.5 -91.5q0 -64 38 -102.5t114 -38.5q86 0 157 48.5t109 137.5z" />
    <glyph glyph-name="oe" unicode="&#x153;" horiz-adv-x="1935" 
d="M1884 313q-59 -136 -175.5 -233.5t-307.5 -97.5q-251 0 -404 163q-45 -54 -102.5 -91t-124.5 -55.5t-143 -18.5q-126 0 -227 41.5t-173 115.5t-109.5 172t-37.5 205q0 160 76 275t202.5 175t268.5 60q68 0 140 -19.5t130.5 -55.5t97.5 -85q75 78 174 119t205 41
q159 0 295 -98t178 -262l-706 -234q14 -127 94 -219t221 -92q109 0 196.5 60.5t131.5 180.5zM1556 692q0 91 -47.5 152t-146.5 61q-100 0 -170 -69.5t-70 -214.5q0 -43 4 -70zM862 508q0 197 -58 297t-196 100q-137 0 -195.5 -99.5t-58.5 -297.5t58.5 -297.5t195.5 -99.5
q138 0 196 100t58 297z" />
  </font>
</defs>
</svg>
